<?xml version="1.0"?>
<svg xmlns="http://www.w3.org/2000/svg" xmlns:xlink="http://www.w3.org/1999/xlink" version="1.1" width="320px" height="320px" viewBox="0 0 320 320"><rect x="0" y="0" width="320" height="320" fill="#ffffff" fill-opacity="1"/><path fill="#000000" fill-opacity="1" d="M12,12L68,12L68,20L12,20ZM76,12L92,12L92,20L76,20ZM124,12L132,12L132,20L124,20ZM140,12L148,12L148,20L140,20ZM156,12L164,12L164,20L156,20ZM172,12L188,12L188,20L172,20ZM204,12L212,12L212,20L204,20ZM220,12L244,12L244,20L220,20ZM252,12L308,12L308,20L252,20ZM12,20L20,20L20,28L12,28ZM60,20L68,20L68,28L60,28ZM116,20L124,20L124,28L116,28ZM132,20L140,20L140,28L132,28ZM180,20L188,20L188,28L180,28ZM196,20L220,20L220,28L196,28ZM252,20L260,20L260,28L252,28ZM300,20L308,20L308,28L300,28ZM12,28L20,28L20,36L12,36ZM28,28L52,28L52,36L28,36ZM60,28L68,28L68,36L60,36ZM76,28L84,28L84,36L76,36ZM100,28L124,28L124,36L100,36ZM132,28L140,28L140,36L132,36ZM156,28L164,28L164,36L156,36ZM172,28L180,28L180,36L172,36ZM196,28L204,28L204,36L196,36ZM212,28L236,28L236,36L212,36ZM252,28L260,28L260,36L252,36ZM268,28L292,28L292,36L268,36ZM300,28L308,28L308,36L300,36ZM12,36L20,36L20,44L12,44ZM28,36L52,36L52,44L28,44ZM60,36L68,36L68,44L60,44ZM76,36L92,36L92,44L76,44ZM100,36L108,36L108,44L100,44ZM116,36L124,36L124,44L116,44ZM132,36L164,36L164,44L132,44ZM204,36L244,36L244,44L204,44ZM252,36L260,36L260,44L252,44ZM268,36L292,36L292,44L268,44ZM300,36L308,36L308,44L300,44ZM12,44L20,44L20,52L12,52ZM28,44L52,44L52,52L28,52ZM60,44L68,44L68,52L60,52ZM76,44L108,44L108,52L76,52ZM132,44L156,44L156,52L132,52ZM172,44L180,44L180,52L172,52ZM196,44L212,44L212,52L196,52ZM220,44L236,44L236,52L220,52ZM252,44L260,44L260,52L252,52ZM268,44L292,44L292,52L268,52ZM300,44L308,44L308,52L300,52ZM12,52L20,52L20,60L12,60ZM60,52L68,52L68,60L60,60ZM84,52L92,52L92,60L84,60ZM108,52L116,52L116,60L108,60ZM124,52L148,52L148,60L124,60ZM156,52L164,52L164,60L156,60ZM172,52L180,52L180,60L172,60ZM204,52L212,52L212,60L204,60ZM220,52L228,52L228,60L220,60ZM252,52L260,52L260,60L252,60ZM300,52L308,52L308,60L300,60ZM12,60L68,60L68,68L12,68ZM76,60L84,60L84,68L76,68ZM92,60L100,60L100,68L92,68ZM108,60L116,60L116,68L108,68ZM124,60L132,60L132,68L124,68ZM140,60L148,60L148,68L140,68ZM156,60L164,60L164,68L156,68ZM172,60L180,60L180,68L172,68ZM188,60L196,60L196,68L188,68ZM204,60L212,60L212,68L204,68ZM220,60L228,60L228,68L220,68ZM236,60L244,60L244,68L236,68ZM252,60L308,60L308,68L252,68ZM84,68L92,68L92,76L84,76ZM100,68L108,68L108,76L100,76ZM132,68L164,68L164,76L132,76ZM188,68L196,68L196,76L188,76ZM236,68L244,68L244,76L236,76ZM12,76L44,76L44,84L12,84ZM60,76L68,76L68,84L60,84ZM76,76L84,76L84,84L76,84ZM124,76L132,76L132,84L124,84ZM148,76L156,76L156,84L148,84ZM164,76L180,76L180,84L164,84ZM188,76L196,76L196,84L188,84ZM236,76L252,76L252,84L236,84ZM268,76L292,76L292,84L268,84ZM300,76L308,76L308,84L300,84ZM20,84L28,84L28,92L20,92ZM52,84L60,84L60,92L52,92ZM68,84L76,84L76,92L68,92ZM84,84L92,84L92,92L84,92ZM140,84L148,84L148,92L140,92ZM180,84L204,84L204,92L180,92ZM228,84L260,84L260,92L228,92ZM268,84L276,84L276,92L268,92ZM292,84L308,84L308,92L292,92ZM12,92L20,92L20,100L12,100ZM36,92L44,92L44,100L36,100ZM52,92L68,92L68,100L52,100ZM84,92L100,92L100,100L84,100ZM116,92L132,92L132,100L116,100ZM140,92L164,92L164,100L140,100ZM172,92L204,92L204,100L172,100ZM236,92L244,92L244,100L236,100ZM260,92L268,92L268,100L260,100ZM300,92L308,92L308,100L300,100ZM12,100L44,100L44,108L12,108ZM52,100L60,100L60,108L52,108ZM76,100L132,100L132,108L76,108ZM148,100L156,100L156,108L148,108ZM164,100L188,100L188,108L164,108ZM204,100L220,100L220,108L204,108ZM252,100L268,100L268,108L252,108ZM276,100L292,100L292,108L276,108ZM44,108L108,108L108,116L44,116ZM132,108L140,108L140,116L132,116ZM148,108L164,108L164,116L148,116ZM180,108L188,108L188,116L180,116ZM220,108L236,108L236,116L220,116ZM244,108L252,108L252,116L244,116ZM276,108L284,108L284,116L276,116ZM292,108L308,108L308,116L292,116ZM28,116L52,116L52,124L28,124ZM76,116L92,116L92,124L76,124ZM100,116L108,116L108,124L100,124ZM140,116L172,116L172,124L140,124ZM204,116L212,116L212,124L204,124ZM220,116L228,116L228,124L220,124ZM244,116L260,116L260,124L244,124ZM20,124L52,124L52,132L20,132ZM60,124L68,124L68,132L60,132ZM76,124L92,124L92,132L76,132ZM108,124L116,124L116,132L108,132ZM124,124L132,124L132,132L124,132ZM148,124L156,124L156,132L148,132ZM164,124L180,124L180,132L164,132ZM204,124L212,124L212,132L204,132ZM220,124L228,124L228,132L220,132ZM244,124L252,124L252,132L244,132ZM276,124L284,124L284,132L276,132ZM300,124L308,124L308,132L300,132ZM44,132L60,132L60,140L44,140ZM68,132L92,132L92,140L68,140ZM108,132L124,132L124,140L108,140ZM164,132L180,132L180,140L164,140ZM188,132L204,132L204,140L188,140ZM212,132L220,132L220,140L212,140ZM236,132L268,132L268,140L236,140ZM300,132L308,132L308,140L300,140ZM20,140L28,140L28,148L20,148ZM36,140L52,140L52,148L36,148ZM60,140L68,140L68,148L60,148ZM84,140L108,140L108,148L84,148ZM116,140L124,140L124,148L116,148ZM180,140L188,140L188,148L180,148ZM196,140L204,140L204,148L196,148ZM220,140L228,140L228,148L220,148ZM236,140L252,140L252,148L236,148ZM260,140L284,140L284,148L260,148ZM20,148L36,148L36,156L20,156ZM52,148L60,148L60,156L52,156ZM68,148L76,148L76,156L68,156ZM84,148L92,148L92,156L84,156ZM108,148L132,148L132,156L108,156ZM140,148L148,148L148,156L140,156ZM172,148L180,148L180,156L172,156ZM188,148L244,148L244,156L188,156ZM260,148L276,148L276,156L260,156ZM284,148L292,148L292,156L284,156ZM300,148L308,148L308,156L300,156ZM12,156L20,156L20,164L12,164ZM36,156L44,156L44,164L36,164ZM60,156L84,156L84,164L60,164ZM100,156L116,156L116,164L100,164ZM140,156L148,156L148,164L140,164ZM172,156L180,156L180,164L172,164ZM196,156L276,156L276,164L196,164ZM284,156L292,156L292,164L284,164ZM36,164L60,164L60,172L36,172ZM76,164L84,164L84,172L76,172ZM92,164L100,164L100,172L92,172ZM108,164L116,164L116,172L108,172ZM124,164L132,164L132,172L124,172ZM140,164L172,164L172,172L140,172ZM188,164L212,164L212,172L188,172ZM228,164L252,164L252,172L228,172ZM260,164L276,164L276,172L260,172ZM292,164L308,164L308,172L292,172ZM12,172L20,172L20,180L12,180ZM52,172L84,172L84,180L52,180ZM92,172L124,172L124,180L92,180ZM140,172L148,172L148,180L140,180ZM156,172L172,172L172,180L156,180ZM188,172L196,172L196,180L188,180ZM212,172L228,172L228,180L212,180ZM244,172L252,172L252,180L244,180ZM276,172L300,172L300,180L276,180ZM12,180L44,180L44,188L12,188ZM52,180L60,180L60,188L52,188ZM68,180L100,180L100,188L68,188ZM108,180L124,180L124,188L108,188ZM132,180L140,180L140,188L132,188ZM156,180L164,180L164,188L156,188ZM180,180L212,180L212,188L180,188ZM220,180L236,180L236,188L220,188ZM244,180L252,180L252,188L244,188ZM260,180L268,180L268,188L260,188ZM292,180L308,180L308,188L292,188ZM20,188L36,188L36,196L20,196ZM44,188L52,188L52,196L44,196ZM60,188L84,188L84,196L60,196ZM100,188L124,188L124,196L100,196ZM140,188L148,188L148,196L140,196ZM164,188L172,188L172,196L164,196ZM180,188L196,188L196,196L180,196ZM212,188L228,188L228,196L212,196ZM236,188L252,188L252,196L236,196ZM300,188L308,188L308,196L300,196ZM12,196L20,196L20,204L12,204ZM44,196L60,196L60,204L44,204ZM68,196L100,196L100,204L68,204ZM132,196L148,196L148,204L132,204ZM156,196L164,196L164,204L156,204ZM172,196L196,196L196,204L172,204ZM204,196L236,196L236,204L204,204ZM244,196L260,196L260,204L244,204ZM276,196L292,196L292,204L276,204ZM12,204L28,204L28,212L12,212ZM44,204L52,204L52,212L44,212ZM60,204L84,204L84,212L60,212ZM108,204L116,204L116,212L108,212ZM124,204L140,204L140,212L124,212ZM148,204L164,204L164,212L148,212ZM180,204L188,204L188,212L180,212ZM204,204L220,204L220,212L204,212ZM228,204L236,204L236,212L228,212ZM268,204L276,204L276,212L268,212ZM292,204L308,204L308,212L292,212ZM20,212L60,212L60,220L20,220ZM68,212L92,212L92,220L68,220ZM100,212L116,212L116,220L100,220ZM124,212L140,212L140,220L124,220ZM148,212L156,212L156,220L148,220ZM172,212L180,212L180,220L172,220ZM188,212L196,212L196,220L188,220ZM228,212L236,212L236,220L228,220ZM244,212L252,212L252,220L244,220ZM260,212L268,212L268,220L260,220ZM276,212L284,212L284,220L276,220ZM20,220L36,220L36,228L20,228ZM52,220L68,220L68,228L52,228ZM76,220L92,220L92,228L76,228ZM100,220L108,220L108,228L100,228ZM116,220L124,220L124,228L116,228ZM140,220L164,220L164,228L140,228ZM172,220L188,220L188,228L172,228ZM204,220L236,220L236,228L204,228ZM244,220L252,220L252,228L244,228ZM260,220L284,220L284,228L260,228ZM300,220L308,220L308,228L300,228ZM12,228L20,228L20,236L12,236ZM36,228L44,228L44,236L36,236ZM52,228L60,228L60,236L52,236ZM100,228L108,228L108,236L100,236ZM124,228L132,228L132,236L124,236ZM140,228L148,228L148,236L140,236ZM156,228L164,228L164,236L156,236ZM172,228L188,228L188,236L172,236ZM196,228L204,228L204,236L196,236ZM212,228L220,228L220,236L212,236ZM260,228L268,228L268,236L260,236ZM276,228L308,228L308,236L276,236ZM28,236L36,236L36,244L28,244ZM44,236L52,236L52,244L44,244ZM60,236L84,236L84,244L60,244ZM108,236L116,236L116,244L108,244ZM124,236L132,236L132,244L124,244ZM140,236L164,236L164,244L140,244ZM172,236L188,236L188,244L172,244ZM196,236L228,236L228,244L196,244ZM236,236L276,236L276,244L236,244ZM76,244L92,244L92,252L76,252ZM124,244L132,244L132,252L124,252ZM140,244L148,244L148,252L140,252ZM156,244L164,244L164,252L156,252ZM204,244L220,244L220,252L204,252ZM228,244L244,244L244,252L228,252ZM268,244L292,244L292,252L268,252ZM12,252L68,252L68,260L12,260ZM92,252L100,252L100,260L92,260ZM116,252L156,252L156,260L116,260ZM164,252L196,252L196,260L164,260ZM212,252L220,252L220,260L212,260ZM228,252L244,252L244,260L228,260ZM252,252L260,252L260,260L252,260ZM268,252L284,252L284,260L268,260ZM292,252L308,252L308,260L292,260ZM12,260L20,260L20,268L12,268ZM60,260L68,260L68,268L60,268ZM100,260L108,260L108,268L100,268ZM116,260L164,260L164,268L116,268ZM180,260L212,260L212,268L180,268ZM228,260L244,260L244,268L228,268ZM268,260L284,260L284,268L268,268ZM292,260L308,260L308,268L292,268ZM12,268L20,268L20,276L12,276ZM28,268L52,268L52,276L28,276ZM60,268L68,268L68,276L60,276ZM84,268L100,268L100,276L84,276ZM116,268L132,268L132,276L116,276ZM140,268L148,268L148,276L140,276ZM156,268L172,268L172,276L156,276ZM188,268L196,268L196,276L188,276ZM204,268L292,268L292,276L204,276ZM300,268L308,268L308,276L300,276ZM12,276L20,276L20,284L12,284ZM28,276L52,276L52,284L28,284ZM60,276L68,276L68,284L60,284ZM76,276L84,276L84,284L76,284ZM92,276L100,276L100,284L92,284ZM132,276L140,276L140,284L132,284ZM164,276L172,276L172,284L164,284ZM180,276L188,276L188,284L180,284ZM196,276L212,276L212,284L196,284ZM236,276L260,276L260,284L236,284ZM268,276L276,276L276,284L268,284ZM292,276L308,276L308,284L292,284ZM12,284L20,284L20,292L12,292ZM28,284L52,284L52,292L28,292ZM60,284L68,284L68,292L60,292ZM76,284L92,284L92,292L76,292ZM124,284L172,284L172,292L124,292ZM188,284L220,284L220,292L188,292ZM252,284L260,284L260,292L252,292ZM276,284L284,284L284,292L276,292ZM292,284L300,284L300,292L292,292ZM12,292L20,292L20,300L12,300ZM60,292L68,292L68,300L60,300ZM76,292L148,292L148,300L76,300ZM172,292L180,292L180,300L172,300ZM196,292L244,292L244,300L196,300ZM268,292L308,292L308,300L268,300ZM12,300L68,300L68,308L12,308ZM76,300L92,300L92,308L76,308ZM100,300L108,300L108,308L100,308ZM132,300L140,300L140,308L132,308ZM180,300L196,300L196,308L180,308ZM220,300L228,300L228,308L220,308ZM236,300L252,300L252,308L236,308ZM260,300L268,300L268,308L260,308ZM284,300L308,300L308,308L284,308Z"/></svg>
